<svg xmlns="http://www.w3.org/2000/svg" xml:space="preserve" viewBox="0 0 64 64">
  <path d="M32.1318512 18.2793007c-7.7119007 0-13.9863014 6.2743988-13.9863014 13.9862976s6.2744007 13.9864006 13.9863014 13.9864006 13.9862976-6.274498 13.9862976-13.9864006S39.84375 18.2793007 32.1318512 18.2793007zm0 26c-6.6245003 0-12.0137005-5.3897018-12.0137005-12.0137024s5.3892002-12.0135975 12.0137005-12.0135975 12.0136986 5.3895988 12.0136986 12.0135975-5.3891983 12.0137024-12.0136986 12.0137024zm-.1318016-31.1104012c.5522003 0 1-.4471998 1-1V1c0-.5527-.4477997-1-1-1-.5522995 0-1 .4473-1 1v11.1688995c0 .5528002.4477005 1 1 1zm0 37.6612015c-.5522995 0-1 .4472008-1 1V63c0 .5527.4477005 1 1 1 .5522003 0 1-.4473 1-1V51.830101c0-.5527992-.4477997-1-1-1zM62.263649 30.4452991H51.09375c-.5522003 0-1 .4473-1 1s.4477997 1.0000019 1 1.0000019h11.169899c.5522995 0 1-.4473019 1-1.0000019s-.4477005-1-1-1zm-48.357399 1c0-.5527-.447794-1-.999999-1H1.7363508c-.5523 0-1 .4473-1 1s.4477 1.0000019 1 1.0000019H12.906251c.552205 1e-7 .999999-.4473018.999999-1.0000019zm31.2738991-11.5673999c.2559013 0 .5116997-.097599.7070999-.2929001l7.8988991-7.8984995c.3906021-.3905993.3906021-1.0233994 0-1.4139996-.3905983-.3907003-1.0234985-.3907003-1.4140968 0l-7.8989029 7.8984003c-.3905983.3906002-.3905983 1.0233994 0 1.4140987.1953086.1953011.4512023.2929002.7070007.2929002zm.7070999 25.3251991c-.3906975-.3905983-1.0234985-.3905983-1.4141006 0-.3905983.3907013-.3905983 1.0235023 0 1.4141006l7.8989029 7.8973999c.1952972.1954002.4511986.2929993.7070999.2929993.2557983 0 .5116997-.097599.7069969-.2929993.3906021-.3905983.3906021-1.0233994 0-1.4139977l-7.8988991-7.8975028zM18.112751 19.5849991c.1954002.1953011.4511986.2929001.7070999.2929001.2558002 0 .5116997-.097599.7069988-.2929001.3906059-.3906994.3906059-1.0234985 0-1.4140987L11.6289501 10.2725c-.3906994-.3907003-1.0234947-.3907003-1.4140997 0-.3906002.3906002-.3906002 1.0234003 0 1.4139996l7.8979006 7.8984995zm1.4584999 25.6851005c-.0177002-.0208015-.024601-.0471992-.0444012-.0670013-.3906002-.3905983-1.0233936-.3905983-1.4140987 0l-3.9401007 3.9400024-4.0341949 3.8446999c-.3999052.3811989-.415205 1.0139008-.0339994 1.4137993.0192947.0203018.045495.0278015.066.0460014.0176945.0208969.0245943.0472984.0443945.0669975.1953001.1954002.4512005.2929993.7069998.2929993.2559004 0 .5117006-.097599.7070999-.2929993l3.9401007-3.9398994 4.0341997-3.8446999c.3999004-.3811989.415205-1.0139008.0340004-1.4137993-.0193006-.0203018-.0454999-.0279006-.0660001-.0461006z"/>
</svg>
